<svg xmlns="http://www.w3.org/2000/svg" xmlns:xlink="http://www.w3.org/1999/xlink" id="visual" version="1.1" viewBox="0 0 960 28.99"><path d="M0 28L22.8 27.3C45.7 26.7 91.3 25.3 137 24.7C182.7 24 228.3 24 274 23.7C319.7 23.3 365.3 22.7 411.2 22.8C457 23 503 24 548.8 24.5C594.7 25 640.3 25 686 25.8C731.7 26.7 777.3 28.3 823 28.8C868.7 29.3 914.3 28.7 937.2 28.3L960 28L960 0L937.2 0C914.3 0 868.7 0 823 0C777.3 0 731.7 0 686 0C640.3 0 594.7 0 548.8 0C503 0 457 0 411.2 0C365.3 0 319.7 0 274 0C228.3 0 182.7 0 137 0C91.3 0 45.7 0 22.8 0L0 0Z" fill="#df7760"></path><path d="M0 14L22.8 14.5C45.7 15 91.3 16 137 16.2C182.7 16.3 228.3 15.7 274 16.5C319.7 17.3 365.3 19.7 411.2 20.7C457 21.7 503 21.3 548.8 20C594.7 18.7 640.3 16.3 686 15.8C731.7 15.3 777.3 16.7 823 16.8C868.7 17 914.3 16 937.2 15.5L960 15L960 0L937.2 0C914.3 0 868.7 0 823 0C777.3 0 731.7 0 686 0C640.3 0 594.7 0 548.8 0C503 0 457 0 411.2 0C365.3 0 319.7 0 274 0C228.3 0 182.7 0 137 0C91.3 0 45.7 0 22.8 0L0 0Z" fill="#d35d43"></path><path d="M0 14L22.8 13.7C45.7 13.3 91.3 12.7 137 12.3C182.7 12 228.3 12 274 11.7C319.7 11.3 365.3 10.7 411.2 10.5C457 10.3 503 10.7 548.8 9.7C594.7 8.7 640.3 6.3 686 5.2C731.7 4 777.3 4 823 5.7C868.7 7.3 914.3 10.7 937.2 12.3L960 14L960 0L937.2 0C914.3 0 868.7 0 823 0C777.3 0 731.7 0 686 0C640.3 0 594.7 0 548.8 0C503 0 457 0 411.2 0C365.3 0 319.7 0 274 0C228.3 0 182.7 0 137 0C91.3 0 45.7 0 22.8 0L0 0Z" fill="#c54125"></path></svg>