<svg id="visual" viewBox="0 0 960 420" width="960" height="420" xmlns="http://www.w3.org/2000/svg" xmlns:xlink="http://www.w3.org/1999/xlink" version="1.1"><rect x="0" y="0" width="960" height="420" fill="#F4F0E7"></rect><path d="M0 262L20 267.2C40 272.3 80 282.7 120 280.2C160 277.7 200 262.3 240 266.3C280 270.3 320 293.7 360 300.2C400 306.7 440 296.3 480 295.5C520 294.7 560 303.3 600 296.5C640 289.7 680 267.3 720 254.5C760 241.7 800 238.3 840 241.3C880 244.3 920 253.7 940 258.3L960 263L960 421L940 421C920 421 880 421 840 421C800 421 760 421 720 421C680 421 640 421 600 421C560 421 520 421 480 421C440 421 400 421 360 421C320 421 280 421 240 421C200 421 160 421 120 421C80 421 40 421 20 421L0 421Z" fill="#df7760"></path><path d="M0 285L20 289.3C40 293.7 80 302.3 120 311.2C160 320 200 329 240 332C280 335 320 332 360 331.3C400 330.7 440 332.3 480 332.2C520 332 560 330 600 332.7C640 335.3 680 342.7 720 336.3C760 330 800 310 840 299.3C880 288.7 920 287.3 940 286.7L960 286L960 421L940 421C920 421 880 421 840 421C800 421 760 421 720 421C680 421 640 421 600 421C560 421 520 421 480 421C440 421 400 421 360 421C320 421 280 421 240 421C200 421 160 421 120 421C80 421 40 421 20 421L0 421Z" fill="#d7664d"></path><path d="M0 339L20 341C40 343 80 347 120 341.8C160 336.7 200 322.3 240 316.3C280 310.3 320 312.7 360 321C400 329.3 440 343.7 480 353.8C520 364 560 370 600 372.8C640 375.7 680 375.3 720 372C760 368.7 800 362.3 840 352.7C880 343 920 330 940 323.5L960 317L960 421L940 421C920 421 880 421 840 421C800 421 760 421 720 421C680 421 640 421 600 421C560 421 520 421 480 421C440 421 400 421 360 421C320 421 280 421 240 421C200 421 160 421 120 421C80 421 40 421 20 421L0 421Z" fill="#cf5439"></path><path d="M0 352L20 356C40 360 80 368 120 375.5C160 383 200 390 240 393.7C280 397.3 320 397.7 360 396.3C400 395 440 392 480 391.5C520 391 560 393 600 386.3C640 379.7 680 364.3 720 360.8C760 357.3 800 365.7 840 370.8C880 376 920 378 940 379L960 380L960 421L940 421C920 421 880 421 840 421C800 421 760 421 720 421C680 421 640 421 600 421C560 421 520 421 480 421C440 421 400 421 360 421C320 421 280 421 240 421C200 421 160 421 120 421C80 421 40 421 20 421L0 421Z" fill="#c54125"></path></svg>