<svg xmlns="http://www.w3.org/2000/svg" xmlns:xlink="http://www.w3.org/1999/xlink" id="visual" version="1.1" viewBox="0 0 960 39"><path d="M0 39L26.7 38.8C53.3 38.7 106.7 38.3 160 38.3C213.3 38.3 266.7 38.7 320 36C373.3 33.3 426.7 27.7 480 27C533.3 26.3 586.7 30.7 640 32.7C693.3 34.7 746.7 34.3 800 33C853.3 31.7 906.7 29.3 933.3 28.2L960 27L960 0L933.3 0C906.7 0 853.3 0 800 0C746.7 0 693.3 0 640 0C586.7 0 533.3 0 480 0C426.7 0 373.3 0 320 0C266.7 0 213.3 0 160 0C106.7 0 53.3 0 26.7 0L0 0Z" fill="#df7760"></path><path d="M0 23L26.7 22.7C53.3 22.3 106.7 21.7 160 21.8C213.3 22 266.7 23 320 23.5C373.3 24 426.7 24 480 24.3C533.3 24.7 586.7 25.3 640 25C693.3 24.7 746.7 23.3 800 21C853.3 18.7 906.7 15.3 933.3 13.7L960 12L960 0L933.3 0C906.7 0 853.3 0 800 0C746.7 0 693.3 0 640 0C586.7 0 533.3 0 480 0C426.7 0 373.3 0 320 0C266.7 0 213.3 0 160 0C106.7 0 53.3 0 26.7 0L0 0Z" fill="#d7664d"></path><path d="M0 16L26.7 17C53.3 18 106.7 20 160 18.5C213.3 17 266.7 12 320 10.5C373.3 9 426.7 11 480 13.7C533.3 16.3 586.7 19.7 640 20.3C693.3 21 746.7 19 800 16.3C853.3 13.7 906.7 10.3 933.3 8.7L960 7L960 0L933.3 0C906.7 0 853.3 0 800 0C746.7 0 693.3 0 640 0C586.7 0 533.3 0 480 0C426.7 0 373.3 0 320 0C266.7 0 213.3 0 160 0C106.7 0 53.3 0 26.7 0L0 0Z" fill="#cf5439"></path><path d="M0 12L26.7 12.2C53.3 12.3 106.7 12.7 160 12.3C213.3 12 266.7 11 320 8.8C373.3 6.7 426.7 3.3 480 3.3C533.3 3.3 586.7 6.7 640 7.2C693.3 7.7 746.7 5.3 800 5.2C853.3 5 906.7 7 933.3 8L960 9L960 0L933.3 0C906.7 0 853.3 0 800 0C746.7 0 693.3 0 640 0C586.7 0 533.3 0 480 0C426.7 0 373.3 0 320 0C266.7 0 213.3 0 160 0C106.7 0 53.3 0 26.7 0L0 0Z" fill="#c54125"></path></svg>